<?xml version="1.0" encoding="utf-8"?>
<!-- Generator: Adobe Illustrator 24.3.0, SVG Export Plug-In . SVG Version: 6.00 Build 0)  -->
<svg version="1.1" id="Layer_1" xmlns="http://www.w3.org/2000/svg" xmlns:xlink="http://www.w3.org/1999/xlink" x="0px" y="0px"
	 viewBox="0 0 573.6 79" style="enable-background:new 0 0 573.6 79;" xml:space="preserve">
<style type="text/css">
	.st0{fill:#FEFEFE;}
	.st1{fill:#BE925B;}
</style>
<g>
	<path class="st0" d="M15.1,76.3c-0.1,1.6,0.7,2.4,2,2.5c0.9,0.1,1.6-0.3,2.2-0.7c7.1-4.2,14.3-8.5,21.4-12.8c0.9-0.6,1.5-0.6,2.4,0
		c6.4,4,12.9,7.8,19.4,11.7c1,0.6,2,1.3,3.2,1.7c1.8,0.5,3.3-0.9,2.9-2.8c-0.8-3.4-1.5-6.9-2.3-10.3c-1.1-5.1-2.3-10.1-3.4-15.2
		c-0.2-0.8,0-1.4,0.7-2c4-3.3,7.9-6.7,11.8-10.2c2.4-2.1,4.8-4.1,7.1-6.3c0.5-0.5,0.9-1,1.1-1.7c0.4-1.3-1.1-3.2-2.4-3.1
		c-2.7,0.2-5.4-0.3-8.1-0.5c-3.6-0.3-7.2-0.7-10.8-0.9c-2.2-0.1-4.4-0.4-6.6-0.7c-0.7-0.1-1.3-0.3-1.6-1.1c-1.4-3.3-2.8-6.5-4.2-9.8
		c-1.9-4.5-3.9-9-5.8-13.6c-0.3-0.8-0.8-1.5-1.4-2c-0.2-0.2-0.4-0.3-0.7-0.3C41.4-1.2,40.6-0.8,40,0c-0.4,0.7-0.8,1.4-1.1,2.1
		c-2.3,5.4-4.7,10.8-7,16.3c-0.9,2.1-2,4.2-2.4,6.5c-0.1,0.3-0.3,0.3-0.5,0.3c-1.1,0.1-2.3,0.1-3.4,0.2c-4.8,0.6-9.6,0.9-14.4,1.4
		c-3,0.3-6.1,0.6-9.1,0.9c-0.9,0.1-1.7,0.4-2,1.3c-0.3,0.9-0.1,1.6,0.5,2.4c1.1,1.4,2.5,2.6,3.9,3.8c5.3,4.6,10.5,9.2,15.8,13.7
		c0.7,0.6,1.2,1.1,0.6,2c-0.1,0.2-0.1,0.5-0.2,0.7c-1.4,6.3-2.9,12.6-4.3,18.9C15.9,72.5,15.3,74.5,15.1,76.3z"/>
	<path class="st1" d="M15.1,76.3c0.2-1.8,0.8-3.8,1.3-5.9c1.4-6.3,2.9-12.6,4.3-18.9c0.1-0.2,0.1-0.5,0.2-0.7c0.6-0.9,0.2-1.4-0.6-2
		c-5.3-4.6-10.5-9.2-15.8-13.7c-1.4-1.2-2.8-2.3-3.9-3.8C0,30.6-0.2,29.9,0.2,29c0.3-0.9,1.2-1.2,2-1.3c3-0.3,6.1-0.6,9.1-0.9
		c4.8-0.5,9.6-0.7,14.4-1.4c1.1-0.1,2.3-0.1,3.4-0.2c0.2,0,0.4,0,0.5-0.3c0.4-2.3,1.5-4.3,2.4-6.5c2.3-5.4,4.6-10.9,7-16.3
		C39.3,1.4,39.6,0.7,40,0c0.5-0.8,1.4-1.2,2.3-1.4c0.3-0.1,0.5,0.1,0.7,0.3c0.6,0.5,1.1,1.3,1.4,2c1.9,4.5,3.9,9,5.8,13.6
		c1.4,3.3,2.8,6.5,4.2,9.8c0.3,0.8,0.9,1,1.6,1.1c2.2,0.3,4.4,0.5,6.6,0.7c3.6,0.2,7.2,0.7,10.8,0.9c2.7,0.2,5.3,0.7,8.1,0.5
		c1.3-0.1,2.8,1.8,2.4,3.1c-0.2,0.7-0.6,1.2-1.1,1.7c-2.2,2.2-4.7,4.2-7.1,6.3c-3.9,3.4-7.8,6.8-11.8,10.2c-0.7,0.6-0.9,1.1-0.7,2
		c1.2,5.1,2.3,10.1,3.4,15.2c0.8,3.4,1.5,6.9,2.3,10.3c0.4,1.9-1.1,3.3-2.9,2.8c-1.2-0.3-2.2-1.1-3.2-1.7c-6.5-3.9-13-7.8-19.4-11.7
		c-0.9-0.6-1.5-0.6-2.4,0c-7.1,4.3-14.3,8.5-21.4,12.8c-0.7,0.4-1.4,0.8-2.2,0.7C15.8,78.8,15.1,78,15.1,76.3z"/>
</g>
<g>
	<path class="st0" d="M137.6,76.3c-0.1,1.6,0.7,2.4,2,2.5c0.9,0.1,1.6-0.3,2.2-0.7c7.1-4.2,14.3-8.5,21.4-12.8
		c0.9-0.6,1.5-0.6,2.4,0c6.4,4,12.9,7.8,19.4,11.7c1,0.6,2,1.3,3.2,1.7c1.8,0.5,3.3-0.9,2.9-2.8c-0.8-3.4-1.5-6.9-2.3-10.3
		c-1.1-5.1-2.3-10.1-3.4-15.2c-0.2-0.8,0-1.4,0.7-2c4-3.3,7.9-6.7,11.8-10.2c2.4-2.1,4.8-4.1,7.1-6.3c0.5-0.5,0.9-1,1.1-1.7
		c0.4-1.3-1.1-3.2-2.4-3.1c-2.7,0.2-5.4-0.3-8.1-0.5c-3.6-0.3-7.2-0.7-10.8-0.9c-2.2-0.1-4.4-0.4-6.6-0.7c-0.7-0.1-1.3-0.3-1.6-1.1
		c-1.4-3.3-2.8-6.5-4.2-9.8c-1.9-4.5-3.9-9-5.8-13.6c-0.3-0.8-0.8-1.5-1.4-2c-0.2-0.2-0.4-0.3-0.7-0.3c-0.9,0.2-1.7,0.5-2.3,1.4
		c-0.4,0.7-0.8,1.4-1.1,2.1c-2.3,5.4-4.7,10.8-7,16.3c-0.9,2.1-2,4.2-2.4,6.5c-0.1,0.3-0.3,0.3-0.5,0.3c-1.1,0.1-2.3,0.1-3.4,0.2
		c-4.8,0.6-9.6,0.9-14.4,1.4c-3,0.3-6.1,0.6-9.1,0.9c-0.9,0.1-1.7,0.4-2,1.3c-0.3,0.9-0.1,1.6,0.5,2.4c1.1,1.4,2.5,2.6,3.9,3.8
		c5.3,4.6,10.5,9.2,15.8,13.7c0.7,0.6,1.2,1.1,0.6,2c-0.1,0.2-0.1,0.5-0.2,0.7c-1.4,6.3-2.9,12.6-4.3,18.9
		C138.4,72.5,137.8,74.5,137.6,76.3z"/>
	<path class="st1" d="M137.6,76.3c0.2-1.8,0.8-3.8,1.3-5.9c1.4-6.3,2.9-12.6,4.3-18.9c0.1-0.2,0.1-0.5,0.2-0.7
		c0.6-0.9,0.2-1.4-0.6-2c-5.3-4.6-10.5-9.2-15.8-13.7c-1.4-1.2-2.8-2.3-3.9-3.8c-0.6-0.8-0.8-1.5-0.5-2.4c0.3-0.9,1.2-1.2,2-1.3
		c3-0.3,6.1-0.6,9.1-0.9c4.8-0.5,9.6-0.7,14.4-1.4c1.1-0.1,2.3-0.1,3.4-0.2c0.2,0,0.4,0,0.5-0.3c0.4-2.3,1.5-4.3,2.4-6.5
		c2.3-5.4,4.6-10.9,7-16.3c0.3-0.7,0.6-1.5,1.1-2.1c0.5-0.8,1.4-1.2,2.3-1.4c0.3-0.1,0.5,0.1,0.7,0.3c0.6,0.5,1.1,1.3,1.4,2
		c1.9,4.5,3.9,9,5.8,13.6c1.4,3.3,2.8,6.5,4.2,9.8c0.3,0.8,0.9,1,1.6,1.1c2.2,0.3,4.4,0.5,6.6,0.7c3.6,0.2,7.2,0.7,10.8,0.9
		c2.7,0.2,5.3,0.7,8.1,0.5c1.3-0.1,2.8,1.8,2.4,3.1c-0.2,0.7-0.6,1.2-1.1,1.7c-2.2,2.2-4.7,4.2-7.1,6.3c-3.9,3.4-7.8,6.8-11.8,10.2
		c-0.7,0.6-0.9,1.1-0.7,2c1.2,5.1,2.3,10.1,3.4,15.2c0.8,3.4,1.5,6.9,2.3,10.3c0.4,1.9-1.1,3.3-2.9,2.8c-1.2-0.3-2.2-1.1-3.2-1.7
		c-6.5-3.9-13-7.8-19.4-11.7c-0.9-0.6-1.5-0.6-2.4,0c-7.1,4.3-14.3,8.5-21.4,12.8c-0.7,0.4-1.4,0.8-2.2,0.7
		C138.3,78.8,137.5,78,137.6,76.3z"/>
</g>
<g>
	<path class="st0" d="M260,76.3c-0.1,1.6,0.7,2.4,2,2.5c0.9,0.1,1.6-0.3,2.2-0.7c7.1-4.2,14.3-8.5,21.4-12.8c0.9-0.6,1.5-0.6,2.4,0
		c6.4,4,12.9,7.8,19.4,11.7c1,0.6,2,1.3,3.2,1.7c1.8,0.5,3.3-0.9,2.9-2.8c-0.8-3.4-1.5-6.9-2.3-10.3c-1.1-5.1-2.3-10.1-3.4-15.2
		c-0.2-0.8,0-1.4,0.7-2c4-3.3,7.9-6.7,11.8-10.2c2.4-2.1,4.8-4.1,7.1-6.3c0.5-0.5,0.9-1,1.1-1.7c0.4-1.3-1.1-3.2-2.4-3.1
		c-2.7,0.2-5.4-0.3-8.1-0.5c-3.6-0.3-7.2-0.7-10.8-0.9c-2.2-0.1-4.4-0.4-6.6-0.7c-0.7-0.1-1.3-0.3-1.6-1.1c-1.4-3.3-2.8-6.5-4.2-9.8
		c-1.9-4.5-3.9-9-5.8-13.6c-0.3-0.8-0.8-1.5-1.4-2c-0.2-0.2-0.4-0.3-0.7-0.3c-0.9,0.2-1.7,0.5-2.3,1.4c-0.4,0.7-0.8,1.4-1.1,2.1
		c-2.3,5.4-4.7,10.8-7,16.3c-0.9,2.1-2,4.2-2.4,6.5c-0.1,0.3-0.3,0.3-0.5,0.3c-1.1,0.1-2.3,0.1-3.4,0.2c-4.8,0.6-9.6,0.9-14.4,1.4
		c-3,0.3-6.1,0.6-9.1,0.9c-0.9,0.1-1.7,0.4-2,1.3c-0.3,0.9-0.1,1.6,0.5,2.4c1.1,1.4,2.5,2.6,3.9,3.8c5.3,4.6,10.5,9.2,15.8,13.7
		c0.7,0.6,1.2,1.1,0.6,2c-0.1,0.2-0.1,0.5-0.2,0.7c-1.4,6.3-2.9,12.6-4.3,18.9C260.8,72.5,260.2,74.5,260,76.3z"/>
	<path class="st1" d="M260,76.3c0.2-1.8,0.8-3.8,1.3-5.9c1.4-6.3,2.9-12.6,4.3-18.9c0.1-0.2,0.1-0.5,0.2-0.7c0.6-0.9,0.2-1.4-0.6-2
		c-5.3-4.6-10.5-9.2-15.8-13.7c-1.4-1.2-2.8-2.3-3.9-3.8c-0.6-0.8-0.8-1.5-0.5-2.4c0.3-0.9,1.2-1.2,2-1.3c3-0.3,6.1-0.6,9.1-0.9
		c4.8-0.5,9.6-0.7,14.4-1.4c1.1-0.1,2.3-0.1,3.4-0.2c0.2,0,0.4,0,0.5-0.3c0.4-2.3,1.5-4.3,2.4-6.5c2.3-5.4,4.6-10.9,7-16.3
		c0.3-0.7,0.6-1.5,1.1-2.1c0.5-0.8,1.4-1.2,2.3-1.4c0.3-0.1,0.5,0.1,0.7,0.3c0.6,0.5,1.1,1.3,1.4,2c1.9,4.5,3.9,9,5.8,13.6
		c1.4,3.3,2.8,6.5,4.2,9.8c0.3,0.8,0.9,1,1.6,1.1c2.2,0.3,4.4,0.5,6.6,0.7c3.6,0.2,7.2,0.7,10.8,0.9c2.7,0.2,5.3,0.7,8.1,0.5
		c1.3-0.1,2.8,1.8,2.4,3.1c-0.2,0.7-0.6,1.2-1.1,1.7c-2.2,2.2-4.7,4.2-7.1,6.3c-3.9,3.4-7.8,6.8-11.8,10.2c-0.7,0.6-0.9,1.1-0.7,2
		c1.2,5.1,2.3,10.1,3.4,15.2c0.8,3.4,1.5,6.9,2.3,10.3c0.4,1.9-1.1,3.3-2.9,2.8c-1.2-0.3-2.2-1.1-3.2-1.7c-6.5-3.9-13-7.8-19.4-11.7
		c-0.9-0.6-1.5-0.6-2.4,0c-7.1,4.3-14.3,8.5-21.4,12.8c-0.7,0.4-1.4,0.8-2.2,0.7C260.7,78.8,260,78,260,76.3z"/>
</g>
<g>
	<path class="st0" d="M382.5,76.3c-0.1,1.6,0.7,2.4,2,2.5c0.9,0.1,1.6-0.3,2.2-0.7c7.1-4.2,14.3-8.5,21.4-12.8
		c0.9-0.6,1.5-0.6,2.4,0c6.4,4,12.9,7.8,19.4,11.7c1,0.6,2,1.3,3.2,1.7c1.8,0.5,3.3-0.9,2.9-2.8c-0.8-3.4-1.5-6.9-2.3-10.3
		c-1.1-5.1-2.3-10.1-3.4-15.2c-0.2-0.8,0-1.4,0.7-2c4-3.3,7.9-6.7,11.8-10.2c2.4-2.1,4.8-4.1,7.1-6.3c0.5-0.5,0.9-1,1.1-1.7
		c0.4-1.3-1.1-3.2-2.4-3.1c-2.7,0.2-5.4-0.3-8.1-0.5c-3.6-0.3-7.2-0.7-10.8-0.9c-2.2-0.1-4.4-0.4-6.6-0.7c-0.7-0.1-1.3-0.3-1.6-1.1
		c-1.4-3.3-2.8-6.5-4.2-9.8c-1.9-4.5-3.9-9-5.8-13.6c-0.3-0.8-0.8-1.5-1.4-2c-0.2-0.2-0.4-0.3-0.7-0.3c-0.9,0.2-1.7,0.5-2.3,1.4
		c-0.4,0.7-0.8,1.4-1.1,2.1c-2.3,5.4-4.7,10.8-7,16.3c-0.9,2.1-2,4.2-2.4,6.5c-0.1,0.3-0.3,0.3-0.5,0.3c-1.1,0.1-2.3,0.1-3.4,0.2
		c-4.8,0.6-9.6,0.9-14.4,1.4c-3,0.3-6.1,0.6-9.1,0.9c-0.9,0.1-1.7,0.4-2,1.3c-0.3,0.9-0.1,1.6,0.5,2.4c1.1,1.4,2.5,2.6,3.9,3.8
		c5.3,4.6,10.5,9.2,15.8,13.7c0.7,0.6,1.2,1.1,0.6,2c-0.1,0.2-0.1,0.5-0.2,0.7c-1.4,6.3-2.9,12.6-4.3,18.9
		C383.3,72.5,382.7,74.5,382.5,76.3z"/>
	<path class="st1" d="M382.5,76.3c0.2-1.8,0.8-3.8,1.3-5.9c1.4-6.3,2.9-12.6,4.3-18.9c0.1-0.2,0.1-0.5,0.2-0.7
		c0.6-0.9,0.2-1.4-0.6-2c-5.3-4.6-10.5-9.2-15.8-13.7c-1.4-1.2-2.8-2.3-3.9-3.8c-0.6-0.8-0.8-1.5-0.5-2.4c0.3-0.9,1.2-1.2,2-1.3
		c3-0.3,6.1-0.6,9.1-0.9c4.8-0.5,9.6-0.7,14.4-1.4c1.1-0.1,2.3-0.1,3.4-0.2c0.2,0,0.4,0,0.5-0.3c0.4-2.3,1.5-4.3,2.4-6.5
		c2.3-5.4,4.6-10.9,7-16.3c0.3-0.7,0.6-1.5,1.1-2.1c0.5-0.8,1.4-1.2,2.3-1.4c0.3-0.1,0.5,0.1,0.7,0.3c0.6,0.5,1.1,1.3,1.4,2
		c1.9,4.5,3.9,9,5.8,13.6c1.4,3.3,2.8,6.5,4.2,9.8c0.3,0.8,0.9,1,1.6,1.1c2.2,0.3,4.4,0.5,6.6,0.7c3.6,0.2,7.2,0.7,10.8,0.9
		c2.7,0.2,5.3,0.7,8.1,0.5c1.3-0.1,2.8,1.8,2.4,3.1c-0.2,0.7-0.6,1.2-1.1,1.7c-2.2,2.2-4.7,4.2-7.1,6.3c-3.9,3.4-7.8,6.8-11.8,10.2
		c-0.7,0.6-0.9,1.1-0.7,2c1.2,5.1,2.3,10.1,3.4,15.2c0.8,3.4,1.5,6.9,2.3,10.3c0.4,1.9-1.1,3.3-2.9,2.8c-1.2-0.3-2.2-1.1-3.2-1.7
		c-6.5-3.9-13-7.8-19.4-11.7c-0.9-0.6-1.5-0.6-2.4,0c-7.1,4.3-14.3,8.5-21.4,12.8c-0.7,0.4-1.4,0.8-2.2,0.7
		C383.2,78.8,382.4,78,382.5,76.3z"/>
</g>
<g>
	<path class="st0" d="M505,76.3c-0.1,1.6,0.7,2.4,2,2.5c0.9,0.1,1.6-0.3,2.2-0.7c7.1-4.2,14.3-8.5,21.4-12.8c0.9-0.6,1.5-0.6,2.4,0
		c6.4,4,12.9,7.8,19.4,11.7c1,0.6,2,1.3,3.2,1.7c1.8,0.5,3.3-0.9,2.9-2.8c-0.8-3.4-1.5-6.9-2.3-10.3c-1.1-5.1-2.3-10.1-3.4-15.2
		c-0.2-0.8,0-1.4,0.7-2c4-3.3,7.9-6.7,11.8-10.2c2.4-2.1,4.8-4.1,7.1-6.3c0.5-0.5,0.9-1,1.1-1.7c0.4-1.3-1.1-3.2-2.4-3.1
		c-2.7,0.2-5.4-0.3-8.1-0.5c-3.6-0.3-7.2-0.7-10.8-0.9c-2.2-0.1-4.4-0.4-6.6-0.7c-0.7-0.1-1.3-0.3-1.6-1.1c-1.4-3.3-2.8-6.5-4.2-9.8
		c-1.9-4.5-3.9-9-5.8-13.6c-0.3-0.8-0.8-1.5-1.4-2c-0.2-0.2-0.4-0.3-0.7-0.3c-0.9,0.2-1.7,0.5-2.3,1.4c-0.4,0.7-0.8,1.4-1.1,2.1
		c-2.3,5.4-4.7,10.8-7,16.3c-0.9,2.1-2,4.2-2.4,6.5c-0.1,0.3-0.3,0.3-0.5,0.3c-1.1,0.1-2.3,0.1-3.4,0.2c-4.8,0.6-9.6,0.9-14.4,1.4
		c-3,0.3-6.1,0.6-9.1,0.9c-0.9,0.1-1.7,0.4-2,1.3c-0.3,0.9-0.1,1.6,0.5,2.4c1.1,1.4,2.5,2.6,3.9,3.8c5.3,4.6,10.5,9.2,15.8,13.7
		c0.7,0.6,1.2,1.1,0.6,2c-0.1,0.2-0.1,0.5-0.2,0.7c-1.4,6.3-2.9,12.6-4.3,18.9C505.8,72.5,505.1,74.5,505,76.3z"/>
	<path class="st1" d="M505,76.3c0.2-1.8,0.8-3.8,1.3-5.9c1.4-6.3,2.9-12.6,4.3-18.9c0.1-0.2,0.1-0.5,0.2-0.7c0.6-0.9,0.2-1.4-0.6-2
		c-5.3-4.6-10.5-9.2-15.8-13.7c-1.4-1.2-2.8-2.3-3.9-3.8c-0.6-0.8-0.8-1.5-0.5-2.4c0.3-0.9,1.2-1.2,2-1.3c3-0.3,6.1-0.6,9.1-0.9
		c4.8-0.5,9.6-0.7,14.4-1.4c1.1-0.1,2.3-0.1,3.4-0.2c0.2,0,0.4,0,0.5-0.3c0.4-2.3,1.5-4.3,2.4-6.5c2.3-5.4,4.6-10.9,7-16.3
		c0.3-0.7,0.6-1.5,1.1-2.1c0.5-0.8,1.4-1.2,2.3-1.4c0.3-0.1,0.5,0.1,0.7,0.3c0.6,0.5,1.1,1.3,1.4,2c1.9,4.5,3.9,9,5.8,13.6
		c1.4,3.3,2.8,6.5,4.2,9.8c0.3,0.8,0.9,1,1.6,1.1c2.2,0.3,4.4,0.5,6.6,0.7c3.6,0.2,7.2,0.7,10.8,0.9c2.7,0.2,5.3,0.7,8.1,0.5
		c1.3-0.1,2.8,1.8,2.4,3.1c-0.2,0.7-0.6,1.2-1.1,1.7c-2.2,2.2-4.7,4.2-7.1,6.3c-3.9,3.4-7.8,6.8-11.8,10.2c-0.7,0.6-0.9,1.1-0.7,2
		c1.2,5.1,2.3,10.1,3.4,15.2c0.8,3.4,1.5,6.9,2.3,10.3c0.4,1.9-1.1,3.3-2.9,2.8c-1.2-0.3-2.2-1.1-3.2-1.7c-6.5-3.9-13-7.8-19.4-11.7
		c-0.9-0.6-1.5-0.6-2.4,0c-7.1,4.3-14.3,8.5-21.4,12.8c-0.7,0.4-1.4,0.8-2.2,0.7C505.7,78.8,504.9,78,505,76.3z"/>
</g>
</svg>
